<svg preserveAspectRatio="none" width="100%" height="100%" overflow="visible" style="display: block;" viewBox="0 0 122 44" fill="none" xmlns="http://www.w3.org/2000/svg">
<g id="Union">
<path d="M8.81899 0V3.70652H3.69444V40.2935H8.81899V44H0V0H8.81899Z" fill="white"/>
<path fill-rule="evenodd" clip-rule="evenodd" d="M30.2646 5.5C24.3337 8.91903 20.379 15.0565 20.379 22.0598C20.379 28.9026 24.1547 34.919 29.8603 38.3804H5.48207V5.5H30.2646ZM9.37821 30.8804C9.29717 30.8804 9.22423 30.9454 9.22423 31.0349V34.6447C9.22423 34.7342 9.29717 34.7992 9.37821 34.7992H10.2614C10.3425 34.7992 10.4154 34.7342 10.4154 34.6447V33.4821H14.743C14.824 33.4821 14.8969 33.4089 14.8969 33.3276V32.352C14.8969 32.2707 14.824 32.1975 14.743 32.1975H10.4154V31.0349C10.4154 30.9454 10.3425 30.8804 10.2614 30.8804H9.37821ZM9.37821 25.1909C9.29718 25.1909 9.22426 25.2641 9.22423 25.3454V26.313C9.22425 26.4024 9.29718 26.4675 9.37821 26.4675H11.4204V28.7927H9.37821C9.29718 28.7927 9.22426 28.8578 9.22423 28.9472V29.9148C9.22426 29.9961 9.29718 30.0693 9.37821 30.0693H14.743C14.824 30.0692 14.8969 29.9961 14.8969 29.9148V28.9472C14.8969 28.8578 14.824 28.7927 14.743 28.7927H12.6117V26.4675H14.743C14.824 26.4675 14.8969 26.4024 14.8969 26.313V25.3454C14.8969 25.2641 14.824 25.1909 14.743 25.1909H9.37821ZM9.37821 20.5921C9.29717 20.5921 9.22423 20.6571 9.22423 20.7466V24.1126C9.22425 24.202 9.29718 24.2671 9.37821 24.2671H14.743C14.824 24.2671 14.8969 24.202 14.8969 24.1126V20.7466C14.8969 20.6571 14.824 20.5921 14.743 20.5921H13.8596C13.7786 20.5921 13.7056 20.6571 13.7056 20.7466V22.9987H12.6117V21.1449C12.6117 21.0637 12.5468 20.9905 12.4577 20.9905H11.5743C11.4933 20.9905 11.4204 21.0636 11.4204 21.1449V22.9987H10.4154V20.7466C10.4154 20.6571 10.3425 20.5921 10.2614 20.5921H9.37821Z" fill="white"/>
<path d="M38.2422 5.5C42.0663 5.5 46.2546 7.09862 49.3503 9.79337C49.76 10.1131 49.8056 10.6611 49.4414 11.0265L45.8449 14.8631C45.4807 15.1828 44.9799 15.1829 44.6158 14.9089C42.8858 13.3103 40.8827 12.7165 38.652 12.7165C33.6897 12.7165 29.6835 16.9185 29.6835 21.9427C29.6836 26.9211 33.7353 31.0317 38.6975 31.0317C40.0177 31.0317 41.3835 30.849 42.7492 30.3009V27.6519H39.8811C39.3803 27.6519 39.0161 27.2864 39.0161 26.8297V22.308C39.0161 21.8056 39.3803 21.4403 39.8811 21.4402H49.0316C49.4869 21.4402 49.8511 21.8513 49.8511 22.308L49.8966 34.5943C49.8966 34.8227 49.7145 35.1881 49.5324 35.3251C49.5217 35.3319 44.8357 38.2939 38.2422 38.2939C29.1827 38.2939 21.8988 31.0774 21.8987 21.9427C21.8987 12.8079 29.1827 5.50002 38.2422 5.5Z" fill="white"/>
<path fill-rule="evenodd" clip-rule="evenodd" d="M121.708 32.6126C121.813 32.5643 121.919 32.6287 121.919 32.7494V33.6429C121.919 33.7878 121.87 33.8522 121.716 33.9246L121.075 34.2145V36.4038L121.724 36.6936C121.821 36.7338 121.919 36.8224 121.919 36.9834V37.8688C121.919 37.9895 121.813 38.0539 121.708 38.0056L116.25 35.4862C116.201 35.4621 116.16 35.4057 116.16 35.3494V35.2688C116.16 35.2125 116.201 35.1561 116.25 35.132L121.708 32.6126ZM118.634 35.3091V35.3172L119.972 35.9208V34.6974L118.634 35.3091Z" fill="white"/>
<path fill-rule="evenodd" clip-rule="evenodd" d="M66.184 5.91112C71.647 5.91112 76.1085 10.3415 76.1085 15.7767C76.1085 19.9786 73.3314 23.3586 69.3707 24.9571L75.6077 36.5582C75.9263 37.152 75.6077 37.8828 74.8337 37.8828H68.7789C68.4148 37.8828 68.1416 37.6545 68.0505 37.4718L61.9957 25.3681H58.8544V37.015C58.8544 37.4717 58.4447 37.8828 57.9895 37.8828H52.572C52.0712 37.8828 51.707 37.4717 51.707 37.015V6.7789C51.707 6.32217 52.0712 5.91112 52.572 5.91112H66.184ZM58.8544 19.5676H65.5922C67.4587 19.5676 69.0521 17.8319 69.0521 15.9136C69.0521 13.9953 67.4587 12.4425 65.5922 12.4425H58.8544V19.5676Z" fill="white"/>
<path d="M83.9807 5.91112C84.4359 5.91112 84.8456 6.32217 84.8456 6.7789V37.015C84.8456 37.4717 84.4359 37.8828 83.9807 37.8828H78.5177C78.0624 37.8828 77.6527 37.4717 77.6527 37.015V6.7789C77.6527 6.32217 78.0624 5.91113 78.5177 5.91112H83.9807Z" fill="white"/>
<path fill-rule="evenodd" clip-rule="evenodd" d="M98.6245 5.91112C107.411 5.91112 114.604 13.0819 114.604 21.8512C114.604 30.712 107.411 37.8828 98.6245 37.8828H87.5164C87.0611 37.8828 86.6969 37.4717 86.6969 37.015V6.7789C86.6969 6.32217 87.0611 5.91113 87.5164 5.91112H98.6245ZM93.7988 31.123H98.1692C103.314 31.123 107.047 27.0581 107.047 21.8512C107.047 16.6901 103.314 12.6251 98.1692 12.6251H93.7988V31.123Z" fill="white"/>
<path d="M121.335 27.451C121.375 27.451 121.44 27.4832 121.465 27.5154C121.465 27.5154 121.992 28.3445 121.992 29.5116C121.992 31.1134 120.71 32.4013 119.088 32.4014C117.466 32.4014 116.169 31.1134 116.169 29.5116C116.169 28.8355 116.452 28.095 116.931 27.5476C116.988 27.4752 117.085 27.4671 117.15 27.5315L117.831 28.1674C117.888 28.2318 117.888 28.3203 117.839 28.3847C117.555 28.6906 117.45 29.0448 117.45 29.4392C117.45 30.3166 118.196 31.0248 119.088 31.0248C119.972 31.0248 120.702 30.3085 120.702 29.4311C120.702 29.1977 120.67 28.9562 120.573 28.7147H120.102V29.2218C120.102 29.3103 120.037 29.3747 119.956 29.3747H119.153C119.064 29.3747 118.999 29.3103 118.999 29.2218V27.6039C118.999 27.5234 119.072 27.459 119.153 27.459L121.335 27.451Z" fill="white"/>
<path d="M117.28 22.7088C117.361 22.7088 117.434 22.7732 117.434 22.8617V25.0914H118.439V23.2561C118.439 23.1757 118.512 23.1032 118.593 23.1032H119.478C119.567 23.1032 119.632 23.1757 119.632 23.2561V25.0914H120.727V22.8617C120.727 22.7732 120.8 22.7088 120.881 22.7088H121.765C121.846 22.7088 121.919 22.7732 121.919 22.8617V26.1941C121.919 26.2827 121.846 26.3471 121.765 26.3471H116.396C116.315 26.3471 116.242 26.2827 116.242 26.1941V22.8617C116.242 22.7732 116.315 22.7088 116.396 22.7088H117.28Z" fill="white"/>
<path d="M121.854 16.7931C121.935 16.7931 122 16.8655 122 16.946V17.0748C122 17.099 121.976 17.1634 121.959 17.1794L118.74 20.3589V20.367H121.765C121.846 20.367 121.919 20.4314 121.919 20.5199V21.4777C121.919 21.5582 121.846 21.6307 121.765 21.6307L116.306 21.6387C116.225 21.6387 116.16 21.5663 116.16 21.4858V21.2846L119.275 18.0729V18.0649H116.396C116.315 18.0649 116.242 18.0004 116.242 17.9119V16.946C116.242 16.8655 116.315 16.7931 116.396 16.7931H121.854Z" fill="white"/>
<path d="M116.915 10.9618C116.98 10.8894 117.077 10.8894 117.142 10.9538L117.799 11.5816C117.855 11.6379 117.855 11.7266 117.799 11.7829C117.531 12.0807 117.385 12.4751 117.385 12.8695C117.385 13.7791 118.147 14.4472 119.056 14.4472C119.956 14.4472 120.702 13.771 120.702 12.8614C120.702 12.4831 120.564 12.0727 120.313 11.7829C120.264 11.7266 120.264 11.622 120.321 11.5737L120.994 10.9457C121.051 10.8894 121.156 10.8974 121.213 10.9538C121.749 11.5011 122 12.1934 122 12.9098C122 14.5196 120.71 15.8155 119.088 15.8155C117.466 15.8155 116.16 14.5196 116.16 12.9098C116.16 12.1049 116.412 11.5092 116.915 10.9618Z" fill="white"/>
<path d="M116.242 6.01271C116.242 5.88394 116.371 5.81953 116.477 5.88392L119.177 7.68697H121.765C121.846 7.68698 121.919 7.75944 121.919 7.83993V8.79785C121.919 8.88636 121.846 8.95068 121.765 8.95069H119.186L116.477 10.7296C116.371 10.794 116.242 10.7296 116.242 10.6008V9.55448C116.242 9.49009 116.282 9.44983 116.314 9.42569L117.977 8.30675L116.314 7.18792C116.282 7.16378 116.242 7.13158 116.242 7.05914V6.01271Z" fill="white"/>
</g>
</svg>
