<svg preserveAspectRatio="none" width="100%" height="100%" overflow="visible" style="display: block;" viewBox="0 0 248.247 44" fill="none" xmlns="http://www.w3.org/2000/svg">
<g id="Frame" clip-path="url(#clip0_0_23)">
<g id="Union">
<path fill-rule="evenodd" clip-rule="evenodd" d="M22.0752 0.00194913C25.9497 0.00200189 29.756 1.0182 33.1113 2.94921L33.1133 2.95019C36.4687 4.87789 39.2569 7.6558 41.1973 11.0039C43.1336 14.3461 44.1528 18.1404 44.1514 22.0029V22.0078C44.1509 25.8692 43.1303 29.6625 41.1934 33.0029C39.2607 36.3353 36.4873 39.1008 33.1514 41.0264C33.1384 41.0338 33.1265 41.0437 33.1133 41.0508L33.1094 41.0527C33.0641 41.0802 33.0177 41.1052 32.9707 41.1289C29.6545 43.0057 25.909 43.9966 22.0967 44H21.8935C18.0824 43.9634 14.3446 42.9483 11.0381 41.0527C11.0246 41.0446 11.0122 41.0348 10.999 41.0264C7.66297 39.1017 4.88973 36.3359 2.95703 33.0039C1.01993 29.6632 -0.000404481 25.8695 -4.56845e-06 22.0078C-4.09042e-06 22.0052 -1.50826e-05 22.0026 -4.56845e-06 22C-0.00118524 18.138 1.01832 14.3442 2.95507 11.0029C4.88681 7.67049 7.65885 4.90317 10.9941 2.97754C11.0086 2.96829 11.0224 2.95812 11.0371 2.94921C14.3948 1.01728 18.2014 0.00146156 22.0752 0.00194913ZM22.0771 4.05761C18.9216 4.05732 15.8208 4.88394 13.085 6.45605C13.0812 6.45825 13.078 6.46169 13.0742 6.46386C10.382 8.01692 8.13461 10.2367 6.54785 12.9092C4.93469 15.6383 4.07901 18.7478 4.0664 21.917C4.06758 21.9447 4.07124 21.9723 4.07128 22C4.06958 25.1508 4.89977 28.2465 6.47949 30.9727C8.06074 33.7012 10.3334 35.9645 13.0674 37.5361L13.0693 37.5371C15.7712 39.0793 18.8237 39.9036 21.9346 39.9307C25.1405 39.9608 28.2973 39.1334 31.0771 37.5361C33.8137 35.9647 36.0882 33.6998 37.6709 30.9697C39.1523 28.4139 39.9754 25.5334 40.0713 22.5869L40.081 21.9971C40.0827 18.8479 39.2518 15.7541 37.6728 13.0293C36.1895 10.47 34.0982 8.31984 31.5879 6.7666L31.0801 6.46386C28.3416 4.8875 25.2369 4.0575 22.0771 4.05761Z" fill="var(--fill-0, #FFFEFA)"/>
<path d="M200.593 5.81445C203.529 5.81664 206.102 6.48479 208.312 7.81836C210.523 9.15133 211.905 11.4072 212.458 14.5869H208.694C208.269 12.7218 207.407 11.2487 206.11 10.1689C204.813 9.08912 202.974 8.54884 200.593 8.54882C198.509 8.55045 196.797 8.98503 195.457 9.85253C194.828 10.2283 194.31 10.7649 193.957 11.4072C193.604 12.0496 193.429 12.7752 193.449 13.5078C193.449 15.0286 193.992 16.1811 195.075 16.9648C196.159 17.7486 197.807 18.4164 200.019 18.9678L204.675 20.1113C207.269 20.748 209.333 21.755 210.865 23.1309C212.393 24.5105 213.157 26.3225 213.157 28.5674C213.171 31.6157 211.996 33.9873 209.629 35.6826C207.262 37.378 204.21 38.2256 200.473 38.2256C196.944 38.224 194.116 37.3447 191.989 35.5869C189.863 33.8302 188.651 31.4674 188.354 28.501H192.117C192.195 29.4801 192.477 30.4324 192.943 31.2969C193.41 32.1615 194.052 32.9203 194.827 33.5234C196.421 34.795 198.517 35.4307 201.111 35.4307C203.358 35.4306 205.226 34.9527 206.716 33.999C208.205 33.0452 208.95 31.6361 208.95 29.7725C208.956 28.1624 208.434 26.9438 207.387 26.1182C206.338 25.2914 204.924 24.6659 203.145 24.2422L198.425 23.0352C195.659 22.3051 193.458 21.3078 191.821 20.0449C190.184 18.7825 189.365 16.9205 189.365 14.46C189.34 12.8396 189.869 11.2589 190.865 9.98046C191.933 8.63533 193.327 7.58456 194.915 6.92871C196.71 6.16732 198.643 5.78807 200.593 5.81445Z" fill="var(--fill-0, #FFFEFA)"/>
<path d="M144.904 29.4746V6.31738H148.094V37.9727H146.244L125.258 11.7725V37.7207H122.068V6.31738H126.277L144.904 29.4746Z" fill="var(--fill-0, #FFFEFA)"/>
<path fill-rule="evenodd" clip-rule="evenodd" d="M248.244 37.8477H243.524L240.148 30.0908H225.219L221.967 37.8477H218.454L232.233 6.06445H234.403L248.244 37.8477ZM226.308 27.4736H239.009L232.535 12.624L226.308 27.4736Z" fill="var(--fill-0, #FFFEFA)"/>
<path d="M70.1406 20.2393H88.6396V6.31738H92.9766V37.7207H88.6396V22.9072H70.1406V37.7197H65.8027V6.31738H70.1406V20.2393Z" fill="var(--fill-0, #FFFEFA)"/>
<path d="M183.435 8.9873H172.015V37.7207H167.677V8.98828H156.196V6.31738H183.435V8.9873Z" fill="var(--fill-0, #FFFEFA)"/>
<path d="M109.693 37.7178H105.354V6.31738H109.693V37.7178Z" fill="var(--fill-0, #FFFEFA)"/>
</g>
</g>
<defs>
<clipPath id="clip0_0_23">
<rect width="248.247" height="44" fill="white"/>
</clipPath>
</defs>
</svg>
